<svg xmlns="http://www.w3.org/2000/svg" viewBox="0 0 14 14" fill="none">
  <g id="avalanche-avax-logo">
    <path d="M11.3174 2.4016H2.67332V10.258H11.3174V2.4016Z" fill="white" id="background" />
    <path clipRule="evenodd" d="M13.9953 7C13.9953 10.8609 10.8635 13.9907 7 13.9907C3.13658 13.9907 0.00465735 10.8609 0.00465735 7C0.00465735 3.13915 3.13658 0.00930851 7 0.00930851C10.8635 0.00930851 13.9953 3.13915 13.9953 7ZM5.01772 9.78194H3.66012C3.37485 9.78194 3.23393 9.78194 3.14802 9.72702C3.05521 9.66689 2.99851 9.56729 2.99163 9.45735C2.98647 9.35608 3.05694 9.23239 3.19785 8.98509L6.54993 3.08051C6.69257 2.82978 6.76474 2.70441 6.85582 2.65805C6.95377 2.60824 7.07063 2.60824 7.16859 2.65805C7.25967 2.70441 7.33185 2.82978 7.47447 3.08051L8.16359 4.28265L8.1671 4.28878C8.32116 4.55777 8.39928 4.69418 8.43339 4.83734C8.47119 4.99362 8.47119 5.15849 8.43339 5.31477C8.39902 5.45902 8.32169 5.59642 8.16531 5.86947L6.40454 8.97994L6.39998 8.98791C6.24491 9.25911 6.16632 9.39657 6.05741 9.50027C5.93883 9.61364 5.7962 9.69602 5.63981 9.74247C5.49717 9.78194 5.33736 9.78194 5.01772 9.78194ZM8.44611 9.78194H10.3914C10.6784 9.78194 10.8228 9.78194 10.9087 9.72535C11.0015 9.66521 11.0599 9.56384 11.0651 9.454C11.0701 9.35598 11.0011 9.23711 10.8661 9.00419C10.8614 8.99626 10.8568 8.98819 10.852 8.97998L9.87759 7.31416L9.86651 7.29541C9.72958 7.06401 9.66047 6.94716 9.5717 6.902C9.4738 6.85219 9.35858 6.85219 9.26067 6.902C9.1713 6.94837 9.09913 7.0703 8.9565 7.31588L7.98555 8.9817L7.98223 8.98743C7.84009 9.23262 7.76906 9.35515 7.77418 9.45568C7.78106 9.56561 7.83776 9.66689 7.93056 9.72702C8.01477 9.78194 8.15912 9.78194 8.44611 9.78194Z" fill="#E84142" fillRule="evenodd" id="icon" />
  </g>
</svg>
