<svg xmlns="http://www.w3.org/2000/svg" viewBox="0 0 114 31" fill="currentColor">
  <g id="PONG">
    <path d="M96.3275 30.864C95.7752 30.864 95.3275 30.4163 95.3275 29.864V27.544C95.3275 26.9917 94.8798 26.544 94.3275 26.544H91.9595C91.4072 26.544 90.9595 26.0963 90.9595 25.544V5.368C90.9595 4.81571 91.4072 4.368 91.9595 4.368H94.3275C94.8798 4.368 95.3275 3.92029 95.3275 3.368V1C95.3275 0.447715 95.7752 0 96.3275 0H107.863C108.416 0 108.863 0.447715 108.863 1V3.368C108.863 3.92029 109.311 4.368 109.863 4.368H112.279C112.832 4.368 113.279 4.81572 113.279 5.368V12.488C113.279 13.0403 112.832 13.488 112.279 13.488H109.383C108.831 13.488 108.383 13.0403 108.383 12.488V5.848C108.383 5.29571 107.936 4.848 107.383 4.848H96.8075C96.2552 4.848 95.8075 5.29572 95.8075 5.848V25.064C95.8075 25.6163 96.2552 26.064 96.8075 26.064H107.383C107.936 26.064 108.383 25.6163 108.383 25.064V23.176C108.383 22.6237 107.936 22.176 107.383 22.176H105.063C104.511 22.176 104.063 21.7283 104.063 21.176V18.808C104.063 18.2557 103.616 17.808 103.063 17.808H100.647C100.095 17.808 99.6475 17.3603 99.6475 16.808V14.056C99.6475 13.5037 100.095 13.056 100.647 13.056H103.543C104.096 13.056 104.543 13.5037 104.543 14.056V16.328C104.543 16.8803 104.991 17.328 105.543 17.328H112.279C112.832 17.328 113.279 17.7757 113.279 18.328V25.544C113.279 26.0963 112.832 26.544 112.279 26.544H109.863C109.311 26.544 108.863 26.9917 108.863 27.544V29.864C108.863 30.4163 108.416 30.864 107.863 30.864H96.3275Z" id="Vector" />
    <path d="M61.6396 30.864C61.0874 30.864 60.6396 30.4163 60.6396 29.864V1C60.6396 0.447715 61.0874 0 61.6396 0H64.4876C65.0399 0 65.4876 0.447715 65.4876 1V3.368C65.4876 3.92029 65.9354 4.368 66.4876 4.368H68.8077C69.3599 4.368 69.8077 4.81572 69.8077 5.368V7.688C69.8077 8.24029 70.2554 8.688 70.8077 8.688H73.2237C73.7759 8.688 74.2237 9.13572 74.2237 9.688V20.696C74.2237 21.2483 74.6714 21.696 75.2237 21.696H77.0637C77.6159 21.696 78.0637 21.2483 78.0637 20.696V1C78.0637 0.447716 78.5114 0 79.0637 0H81.9597C82.5119 0 82.9597 0.447715 82.9597 1V29.864C82.9597 30.4163 82.5119 30.864 81.9597 30.864H79.0637C78.5114 30.864 78.0637 30.4163 78.0637 29.864V27.544C78.0637 26.9917 77.6159 26.544 77.0637 26.544H74.7437C74.1914 26.544 73.7437 26.0963 73.7437 25.544V23.176C73.7437 22.6237 73.2959 22.176 72.7437 22.176H70.3277C69.7754 22.176 69.3277 21.7283 69.3277 21.176V10.168C69.3277 9.61572 68.8799 9.168 68.3277 9.168H66.4876C65.9354 9.168 65.4876 9.61572 65.4876 10.168V29.864C65.4876 30.4163 65.0399 30.864 64.4876 30.864H61.6396Z" id="Vector_2" />
    <path d="M35.6878 30.864C35.1355 30.864 34.6878 30.4163 34.6878 29.864V27.544C34.6878 26.9917 34.2401 26.544 33.6878 26.544H31.3198C30.7675 26.544 30.3198 26.0963 30.3198 25.544V5.368C30.3198 4.81571 30.7675 4.368 31.3198 4.368H33.6878C34.2401 4.368 34.6878 3.92029 34.6878 3.368V1C34.6878 0.447715 35.1355 0 35.6878 0H47.2238C47.7761 0 48.2238 0.447715 48.2238 1V3.368C48.2238 3.92029 48.6715 4.368 49.2238 4.368H51.6398C52.1921 4.368 52.6398 4.81572 52.6398 5.368V25.544C52.6398 26.0963 52.1921 26.544 51.6398 26.544H49.2238C48.6715 26.544 48.2238 26.9917 48.2238 27.544V29.864C48.2238 30.4163 47.7761 30.864 47.2238 30.864H35.6878ZM35.1678 25.064C35.1678 25.6163 35.6155 26.064 36.1678 26.064H46.7438C47.2961 26.064 47.7438 25.6163 47.7438 25.064V5.848C47.7438 5.29572 47.2961 4.848 46.7438 4.848H36.1678C35.6155 4.848 35.1678 5.29572 35.1678 5.848V25.064Z" id="Vector_3" />
    <path d="M0.999999 30.864C0.447714 30.864 0 30.4163 0 29.864V5.368C0 4.81572 0.447715 4.368 1 4.368H3.368C3.92028 4.368 4.368 3.92029 4.368 3.368V1C4.368 0.447715 4.81572 0 5.368 0H16.904C17.4563 0 17.904 0.447715 17.904 1V3.368C17.904 3.92029 18.3517 4.368 18.904 4.368H21.32C21.8723 4.368 22.32 4.81572 22.32 5.368V16.808C22.32 17.3603 21.8723 17.808 21.32 17.808H18.904C18.3517 17.808 17.904 18.2557 17.904 18.808V21.176C17.904 21.7283 17.4563 22.176 16.904 22.176H5.848C5.29572 22.176 4.848 22.6237 4.848 23.176V29.864C4.848 30.4163 4.40029 30.864 3.848 30.864H0.999999ZM4.848 16.328C4.848 16.8803 5.29572 17.328 5.848 17.328H16.424C16.9763 17.328 17.424 16.8803 17.424 16.328V5.848C17.424 5.29571 16.9763 4.848 16.424 4.848H5.848C5.29572 4.848 4.848 5.29572 4.848 5.848V16.328Z" id="Vector_4" />
  </g>
</svg>





