<svg width="437" height="146" viewBox="0 0 437 146" fill="none" xmlns="http://www.w3.org/2000/svg">
<g clip-path="url(#clip0_252_697)">
<path d="M81.7863 57.3164C73.1638 57.3164 66.1738 64.2744 66.1738 72.8574C66.1738 81.4405 73.1638 88.3984 81.7863 88.3984C90.4088 88.3984 97.3988 81.4405 97.3988 72.8574C97.3988 64.2744 90.4088 57.3164 81.7863 57.3164Z" fill="white"/>
<path d="M162.988 72.9984C162.988 60.7975 151.638 50.0967 133.566 43.0544C133.807 41.4684 134.026 39.8997 134.181 38.3595C135.964 20.8282 131.72 8.17504 122.239 2.72442C111.63 -3.37316 96.6454 1.0526 81.4942 13.1218C66.3431 1.0526 51.3587 -3.37316 40.75 2.72442C31.2683 8.17504 27.0248 20.8282 28.8073 38.3595C28.9626 39.8997 29.1753 41.4742 29.4226 43.0658C27.9161 43.6384 26.4383 44.2453 25.0181 44.8808C8.8837 52.1006 0 62.0972 0 72.9984C0 85.1993 11.3504 95.9001 29.4226 102.942C29.1753 104.528 28.9626 106.097 28.8073 107.637C27.0248 125.169 31.2683 137.822 40.75 143.272C44.0099 145.112 47.7038 146.053 51.4507 145.998C60.4321 145.998 70.9201 141.291 81.4942 132.875C92.0627 141.291 102.556 145.998 111.549 145.998C115.296 146.052 118.99 145.112 122.25 143.272C131.732 137.822 135.975 125.169 134.193 107.637C134.037 106.097 133.819 104.528 133.577 102.942C151.65 95.9116 163 85.1936 163 72.9984M111.48 7.72845C113.889 7.67059 116.271 8.25152 118.38 9.41173C124.964 13.1962 127.919 23.4619 126.482 37.5751C126.384 38.537 126.269 39.5103 126.131 40.4894C118.617 38.236 110.922 36.6289 103.131 35.6857C98.4087 29.435 93.1571 23.5985 87.434 18.2403C96.4212 11.324 104.856 7.72845 111.475 7.72845M108.387 88.4571C105.479 93.483 102.312 98.3561 98.8994 103.057C93.1148 103.649 87.3035 103.943 81.4885 103.939C75.6754 103.943 69.866 103.648 64.0834 103.057C60.6798 98.3559 57.5227 93.4828 54.6247 88.4571C51.7167 83.4451 49.0739 78.2851 46.707 72.9984C49.0739 67.7117 51.7167 62.5517 54.6247 57.5397C57.5181 52.5342 60.6655 47.6784 64.0546 42.9914C69.8478 42.3851 75.6691 42.0831 81.4942 42.0867C87.3073 42.0833 93.1167 42.3776 98.8994 42.9685C102.3 47.6627 105.459 52.5261 108.364 57.5397C111.27 62.5529 113.912 67.7127 116.282 72.9984C113.912 78.284 111.27 83.4439 108.364 88.4571M120.238 82.7316C122.062 87.6866 123.561 92.7548 124.722 97.904C119.68 99.4692 114.54 100.703 109.336 101.597C111.314 98.6273 113.23 95.5375 115.086 92.3275C116.92 89.1556 118.639 85.955 120.261 82.7545M70.5751 111.319C74.1515 111.536 77.8028 111.662 81.5 111.662C85.1972 111.662 88.8715 111.536 92.4537 111.319C89.0572 115.369 85.3982 119.195 81.5 122.77C77.6102 119.195 73.9607 115.37 70.5751 111.319ZM53.6587 101.585C48.4523 100.695 43.3104 99.4656 38.266 97.904C39.4232 92.7629 40.9156 87.7024 42.7337 82.7545C44.3322 85.955 46.0457 89.1556 47.9087 92.3275C49.7717 95.4993 51.6979 98.6254 53.6587 101.597M42.7337 63.2365C40.9222 58.307 39.4336 53.2657 38.2775 48.1443C43.3094 46.581 48.4375 45.3436 53.6299 44.4399C51.6634 47.4 49.7372 50.4688 47.88 53.6693C46.0227 56.8698 44.3265 60.0303 42.705 63.2365M92.4192 34.6723C88.8427 34.4548 85.1915 34.3288 81.4655 34.3288C77.7702 34.3288 74.1285 34.4433 70.5406 34.6723C73.9262 30.6211 77.5757 26.7959 81.4655 23.2215C85.3651 26.7949 89.0243 30.6202 92.4192 34.6723ZM115.074 53.6693C113.211 50.4555 111.285 47.3637 109.295 44.3941C114.514 45.2882 119.667 46.5238 124.722 48.0928C123.563 53.2332 122.07 58.2935 120.255 63.2423C118.656 60.0417 116.937 56.8412 115.08 53.6751M36.5295 37.5809C35.0748 23.4734 38.0475 13.202 44.6255 9.41746C46.7357 8.25905 49.1165 7.67824 51.5254 7.73418C58.1436 7.73418 66.5788 11.3298 75.566 18.2461C69.8391 23.6081 64.5836 29.4483 59.8571 35.7029C52.0688 36.6506 44.3748 38.2517 36.8573 40.4894C36.725 39.5103 36.6043 38.5427 36.5123 37.5809M28.2036 51.9288C29.0891 51.5471 29.9918 51.1654 30.9118 50.7837C32.7205 58.3817 35.173 65.8132 38.243 72.9984C35.1672 80.1977 32.7127 87.6448 30.9061 95.2589C16.2552 89.2758 7.76245 80.9854 7.76245 72.9984C7.76245 65.4294 15.2374 57.7516 28.2036 51.9288ZM44.6255 136.579C38.0475 132.795 35.0748 122.523 36.5295 108.416C36.6215 107.454 36.7423 106.486 36.8745 105.502C44.3892 107.754 52.084 109.362 59.8744 110.305C64.5985 116.558 69.85 122.399 75.5718 127.762C63.0426 137.398 51.5944 140.576 44.6427 136.579M126.476 108.416C127.914 122.529 124.958 132.795 118.375 136.579C111.429 140.587 99.9746 137.398 87.4512 127.762C93.1711 122.398 98.4207 116.558 103.143 110.305C110.933 109.362 118.628 107.755 126.143 105.502C126.281 106.486 126.396 107.454 126.493 108.416M132.117 95.2474C130.305 87.6378 127.849 80.1948 124.774 72.9984C127.848 65.7981 130.302 58.3513 132.111 50.7379C146.733 56.721 155.249 65.0114 155.249 72.9984C155.249 80.9854 146.756 89.2758 132.105 95.2589" fill="white"/>
<path d="M190.938 38.75H215.078C220.266 38.75 224.688 39.5312 228.344 41.0938C232 42.6562 234.797 44.9688 236.734 48.0312C238.703 51.0625 239.688 54.8125 239.688 59.2812C239.688 62.6875 239.062 65.6875 237.812 68.2812C236.562 70.875 234.797 73.0625 232.516 74.8438C230.234 76.5938 227.516 77.9531 224.359 78.9219L220.797 80.6562H199.094L199 71.3281H215.266C218.078 71.3281 220.422 70.8281 222.297 69.8281C224.172 68.8281 225.578 67.4688 226.516 65.75C227.484 64 227.969 62.0312 227.969 59.8438C227.969 57.4688 227.5 55.4062 226.562 53.6562C225.656 51.875 224.25 50.5156 222.344 49.5781C220.438 48.6094 218.016 48.125 215.078 48.125H202.703V107H190.938V38.75ZM229.891 107L213.859 76.3438L226.188 76.2969L242.453 106.391V107H229.891ZM274.561 107.938C270.811 107.938 267.42 107.328 264.389 106.109C261.389 104.859 258.826 103.125 256.701 100.906C254.607 98.6875 252.998 96.0781 251.873 93.0781C250.748 90.0781 250.186 86.8438 250.186 83.375V81.5C250.186 77.5312 250.764 73.9375 251.92 70.7188C253.076 67.5 254.686 64.75 256.748 62.4688C258.811 60.1562 261.248 58.3906 264.061 57.1719C266.873 55.9531 269.92 55.3438 273.201 55.3438C276.826 55.3438 279.998 55.9531 282.717 57.1719C285.436 58.3906 287.686 60.1094 289.467 62.3281C291.279 64.5156 292.623 67.125 293.498 70.1562C294.404 73.1875 294.857 76.5312 294.857 80.1875V85.0156H255.67V76.9062H283.701V76.0156C283.639 73.9844 283.232 72.0781 282.482 70.2969C281.764 68.5156 280.654 67.0781 279.154 65.9844C277.654 64.8906 275.654 64.3438 273.154 64.3438C271.279 64.3438 269.607 64.75 268.139 65.5625C266.701 66.3438 265.498 67.4844 264.529 68.9844C263.561 70.4844 262.811 72.2969 262.279 74.4219C261.779 76.5156 261.529 78.875 261.529 81.5V83.375C261.529 85.5938 261.826 87.6562 262.42 89.5625C263.045 91.4375 263.951 93.0781 265.139 94.4844C266.326 95.8906 267.764 97 269.451 97.8125C271.139 98.5938 273.061 98.9844 275.217 98.9844C277.936 98.9844 280.357 98.4375 282.482 97.3438C284.607 96.25 286.451 94.7031 288.014 92.7031L293.967 98.4688C292.873 100.062 291.451 101.594 289.701 103.062C287.951 104.5 285.811 105.672 283.279 106.578C280.779 107.484 277.873 107.938 274.561 107.938ZM334.184 96.8281V72.6406C334.184 70.8281 333.856 69.2656 333.199 67.9531C332.543 66.6406 331.543 65.625 330.199 64.9062C328.887 64.1875 327.231 63.8281 325.231 63.8281C323.387 63.8281 321.793 64.1406 320.449 64.7656C319.106 65.3906 318.059 66.2344 317.309 67.2969C316.559 68.3594 316.184 69.5625 316.184 70.9062H304.934C304.934 68.9062 305.418 66.9688 306.387 65.0938C307.356 63.2188 308.762 61.5469 310.606 60.0781C312.449 58.6094 314.652 57.4531 317.215 56.6094C319.777 55.7656 322.652 55.3438 325.84 55.3438C329.652 55.3438 333.027 55.9844 335.965 57.2656C338.934 58.5469 341.262 60.4844 342.949 63.0781C344.668 65.6406 345.527 68.8594 345.527 72.7344V95.2812C345.527 97.5938 345.684 99.6719 345.996 101.516C346.34 103.328 346.824 104.906 347.449 106.25V107H335.871C335.34 105.781 334.918 104.234 334.606 102.359C334.324 100.453 334.184 98.6094 334.184 96.8281ZM335.824 76.1562L335.918 83.1406H327.809C325.715 83.1406 323.871 83.3438 322.277 83.75C320.684 84.125 319.356 84.6875 318.293 85.4375C317.231 86.1875 316.434 87.0938 315.902 88.1562C315.371 89.2188 315.106 90.4219 315.106 91.7656C315.106 93.1094 315.418 94.3438 316.043 95.4688C316.668 96.5625 317.574 97.4219 318.762 98.0469C319.981 98.6719 321.449 98.9844 323.168 98.9844C325.481 98.9844 327.496 98.5156 329.215 97.5781C330.965 96.6094 332.34 95.4375 333.34 94.0625C334.34 92.6562 334.871 91.3281 334.934 90.0781L338.59 95.0938C338.215 96.375 337.574 97.75 336.668 99.2188C335.762 100.688 334.574 102.094 333.106 103.438C331.668 104.75 329.934 105.828 327.902 106.672C325.902 107.516 323.59 107.938 320.965 107.938C317.652 107.938 314.699 107.281 312.106 105.969C309.512 104.625 307.481 102.828 306.012 100.578C304.543 98.2969 303.809 95.7188 303.809 92.8438C303.809 90.1562 304.309 87.7812 305.309 85.7188C306.34 83.625 307.84 81.875 309.809 80.4688C311.809 79.0625 314.246 78 317.121 77.2812C319.996 76.5312 323.277 76.1562 326.965 76.1562H335.824ZM379.979 98.9375C381.822 98.9375 383.479 98.5781 384.947 97.8594C386.447 97.1094 387.651 96.0781 388.557 94.7656C389.494 93.4531 390.01 91.9375 390.104 90.2188H400.744C400.682 93.5 399.713 96.4844 397.838 99.1719C395.963 101.859 393.479 104 390.385 105.594C387.291 107.156 383.869 107.938 380.119 107.938C376.244 107.938 372.869 107.281 369.994 105.969C367.119 104.625 364.729 102.781 362.822 100.438C360.916 98.0938 359.479 95.3906 358.51 92.3281C357.572 89.2656 357.104 85.9844 357.104 82.4844V80.8438C357.104 77.3438 357.572 74.0625 358.51 71C359.479 67.9062 360.916 65.1875 362.822 62.8438C364.729 60.5 367.119 58.6719 369.994 57.3594C372.869 56.0156 376.229 55.3438 380.072 55.3438C384.135 55.3438 387.697 56.1562 390.76 57.7812C393.822 59.375 396.229 61.6094 397.979 64.4844C399.76 67.3281 400.682 70.6406 400.744 74.4219H390.104C390.01 72.5469 389.541 70.8594 388.697 69.3594C387.885 67.8281 386.729 66.6094 385.229 65.7031C383.76 64.7969 381.994 64.3438 379.932 64.3438C377.651 64.3438 375.76 64.8125 374.26 65.75C372.76 66.6562 371.588 67.9062 370.744 69.5C369.901 71.0625 369.291 72.8281 368.916 74.7969C368.572 76.7344 368.401 78.75 368.401 80.8438V82.4844C368.401 84.5781 368.572 86.6094 368.916 88.5781C369.26 90.5469 369.854 92.3125 370.697 93.875C371.572 95.4062 372.76 96.6406 374.26 97.5781C375.76 98.4844 377.666 98.9375 379.979 98.9375ZM434.586 56.2812V64.5312H405.992V56.2812H434.586ZM414.242 43.8594H425.539V92.9844C425.539 94.5469 425.758 95.75 426.196 96.5938C426.664 97.4062 427.305 97.9531 428.117 98.2344C428.93 98.5156 429.883 98.6562 430.977 98.6562C431.758 98.6562 432.508 98.6094 433.227 98.5156C433.946 98.4219 434.524 98.3281 434.961 98.2344L435.008 106.859C434.071 107.141 432.977 107.391 431.727 107.609C430.508 107.828 429.102 107.938 427.508 107.938C424.914 107.938 422.617 107.484 420.617 106.578C418.617 105.641 417.055 104.125 415.93 102.031C414.805 99.9375 414.242 97.1562 414.242 93.6875V43.8594Z" fill="white"/>
</g>
<defs>
<clipPath id="clip0_252_697">
<rect width="437" height="146" fill="white"/>
</clipPath>
</defs>
</svg>
