<svg width="442" height="198" viewBox="0 0 442 198" fill="none" xmlns="http://www.w3.org/2000/svg">
<path d="M98.6 64V49.4C98.6 44.1 95.4 39.4 90.5 37.3L0 0V8.10001L80.7 41.4C83.5 42.5 83.5 46.5 80.7 47.6L0 80.9V113.4L48.6 93.3L80.6 106.5C83.4 107.6 83.4 111.6 80.6 112.7L0 146V197.5L90.5 160.2C95.4 158.2 98.6 153.4 98.6 148.1V114.6C98.6 109.3 95.4 104.6 90.5 102.5L58.4 89.3L90.5 76.1C95.4 74.1 98.6 69.3 98.6 64Z" fill="white"/>
<path d="M144.6 72.9L158.8 128.2L174.7 72.9H189.9L204.9 128.2L219.7 72.9H230.9L211.8 139.6H197.6L181.9 82.1L165.6 139.6H151.2L132.7 72.9H144.6Z" fill="white"/>
<path d="M248 109.5C248.4 115 248.999 117.8 250.799 121.3C254.099 127.6 261.599 131.7 269.099 131.7C278.199 131.7 284.099 127.4 286.599 118.9H299C295.9 133.3 285 141.3 268.9 141.3C248.8 141.3 236 127.5 236 105.9C236 84.8 248.8 70.7 267.9 70.7C288.2 70.7 299.199 84.5 299.199 109.3H248V109.5ZM283.799 89.0999C280.699 83.7999 274.4 80.5999 267.9 80.5999C256.7 80.5999 249.599 87.7 248.199 100.5H287C286.4 94.6 285.599 91.7999 283.799 89.0999Z" fill="white"/>
<path d="M310.4 47.5H321.8V82.9C326.5 75 333 71.3 342.5 71.3C359 71.3 370.8 85.7 370.8 106.3C370.8 126.9 359.6 140.9 342.6 140.9C333.3 140.9 327.2 137.2 321.3 128.5V139.5H310.3V47.5H310.4ZM322 106C322 120.6 330.3 131.4 341.1 131.4C351.5 131.4 358.4 121.6 358.4 106.4C358.4 90.5 351.5 80.6 340.7 80.6C329.9 80.6 322 91 322 106Z" fill="white"/>
<path d="M391.5 111.5C391.3 123.3 398.8 131 410.6 131C421.2 131 428.9 124.3 428.9 115.1C428.9 105.7 421.6 99.9 409.8 99.9C408.6 99.9 407.6 99.9 405.9 100.1V89.9C407.3 89.9 408.1 89.9 408.9 89.9C421.1 89.9 428.2 84.6 428.2 75.1C428.2 66.2 421.3 60.5 410.9 60.5C399.7 60.5 393.2 67.2 392.8 79H380.6C381.4 60.7 392.6 50.1 411.1 50.1C428.2 50.1 440.2 59.9 440.2 74.1C440.2 83.5 433.5 92.2 424.5 94.6C435.5 97.4 441.4 104.8 441.4 115.9C441.4 130.9 428.6 141.5 410.5 141.5C391.6 141.5 378.8 129.3 379 111.6C378.9 111.5 391.5 111.5 391.5 111.5Z" fill="white"/>
</svg>
